<svg id="Component_12_1" data-name="Component 12 – 1" xmlns="http://www.w3.org/2000/svg" width="695.85" height="138.23" viewBox="0 0 695.85 138.23">
  <g id="Pingvp_new-white" transform="translate(0 -0.03)">
    <path id="Path_1882" data-name="Path 1882" d="M46,101.94v43.5H13.78V13H73.37q23.25,0,36.56,10.52T123.24,56.1q0,22-13.31,34T73.37,101.94Zm0-24.83H69.4a25,25,0,0,0,8.84-1.39,14,14,0,0,0,5.86-4,17.23,17.23,0,0,0,3.28-6.06,24.67,24.67,0,0,0,1.09-7.45,28.66,28.66,0,0,0-1.09-8.35,19.26,19.26,0,0,0-3.28-6.35,13.11,13.11,0,0,0-5.86-4.17A25,25,0,0,0,69.4,38H46Z" transform="translate(-13.78 -9.97)" fill="#2da9ca"/>
    <path id="Path_1883" data-name="Path 1883" d="M145.68,145.44V13h32.18V145.44Z" transform="translate(-13.78 -9.97)" fill="#2da9ca"/>
    <path id="Path_1884" data-name="Path 1884" d="M206.07,145.44V13h27.41l68.14,91.77-9.54,19.87V13h29.6V145.44H297.44L228.12,54.86l7.54-14.5V145.44Z" transform="translate(-13.78 -9.97)" fill="#2da9ca"/>
    <path id="Path_1885" data-name="Path 1885" d="M408.88,148.23q-19.47,0-34.06-7a49.574,49.574,0,0,1-22.65-22.15q-8-15.2-8.05-39.83,0-24.23,8.05-39.53a50.69,50.69,0,0,1,22.65-22.54Q389.42,10,408.88,10a115.2,115.2,0,0,1,24.44,2.58,131.319,131.319,0,0,1,22.84,7.15V48.9A199.347,199.347,0,0,0,434,39a60.55,60.55,0,0,0-21.15-3.78q-11.33,0-19.37,4t-12.22,13.6q-4.17,9.65-4.17,26.33,0,16.49,4.27,26.12t12,13.8a37.56,37.56,0,0,0,18.08,4.18,67.3,67.3,0,0,0,10-.7,27.26,27.26,0,0,0,8.24-2.48V96.58H407.89v-25h54v62.37a121.421,121.421,0,0,1-25.72,10.53A100.63,100.63,0,0,1,408.88,148.23Z" transform="translate(-13.78 -9.97)" fill="#2da9ca"/>
    <path id="Path_1886" data-name="Path 1886" d="M530.85,145.44,480,13h15.29l45.89,120.38H536l45.09-120,14.7-.39L545,145.44Z" transform="translate(-13.78 -9.97)" fill="#fff"/>
    <path id="Path_1887" data-name="Path 1887" d="M631,94.79v50.65H616.7V13h47.08Q686,13,697.81,23.47t11.82,30.4q0,19.86-11.82,30.39T663.75,94.79Zm0-13.71h31q11.12,0,17.78-2.38t10-6.46a21.141,21.141,0,0,0,4.47-8.84,42.249,42.249,0,0,0,0-19.07,21.2,21.2,0,0,0-4.47-8.84q-3.37-4.07-10-6.45T662,26.65H631Z" transform="translate(-13.78 -9.97)" fill="#fff"/>
  </g>
</svg>
